<svg width="254" height="85" viewBox="0 0 254 85" fill="none" xmlns="http://www.w3.org/2000/svg">
<g filter="url(#filter0_d_4_858)">
<rect x="9" y="4" width="226" height="57" rx="28.5" fill="#08A6E4"/>
</g>
<path d="M112.646 35.4229C112.646 35.973 112.513 36.4512 112.246 36.8574C111.979 37.2637 111.59 37.5768 111.078 37.7969C110.57 38.0169 109.952 38.127 109.225 38.127C108.903 38.127 108.588 38.1058 108.279 38.0635C107.974 38.0212 107.68 37.9598 107.396 37.8794C107.117 37.7948 106.851 37.6911 106.597 37.5684V35.7402C107.037 35.9349 107.494 36.1105 107.968 36.2671C108.442 36.4237 108.911 36.502 109.377 36.502C109.699 36.502 109.957 36.4596 110.151 36.375C110.35 36.2904 110.494 36.174 110.583 36.0259C110.672 35.8778 110.716 35.7085 110.716 35.5181C110.716 35.2853 110.638 35.0864 110.481 34.9214C110.325 34.7563 110.109 34.6019 109.834 34.458C109.563 34.3141 109.256 34.1597 108.914 33.9946C108.698 33.8931 108.463 33.7703 108.209 33.6265C107.955 33.4784 107.714 33.2985 107.485 33.0869C107.257 32.8753 107.069 32.6193 106.92 32.3188C106.777 32.0142 106.705 31.6502 106.705 31.2271C106.705 30.6727 106.832 30.1987 107.085 29.8052C107.339 29.4116 107.701 29.1112 108.171 28.9038C108.645 28.6922 109.203 28.5864 109.847 28.5864C110.329 28.5864 110.788 28.6436 111.224 28.7578C111.664 28.8678 112.123 29.0286 112.602 29.2402L111.967 30.77C111.539 30.5965 111.156 30.4632 110.818 30.3701C110.479 30.2728 110.134 30.2241 109.783 30.2241C109.538 30.2241 109.328 30.2643 109.155 30.3447C108.981 30.4209 108.85 30.5309 108.761 30.6748C108.672 30.8145 108.628 30.9774 108.628 31.1636C108.628 31.3836 108.691 31.5698 108.818 31.7222C108.95 31.8703 109.144 32.0142 109.402 32.1538C109.665 32.2935 109.991 32.4564 110.38 32.6426C110.854 32.8669 111.258 33.1017 111.592 33.3472C111.931 33.5884 112.191 33.874 112.373 34.2041C112.555 34.5299 112.646 34.9362 112.646 35.4229ZM117.102 30.77C117.758 30.77 118.323 30.897 118.797 31.1509C119.271 31.4006 119.637 31.7645 119.895 32.2427C120.153 32.7209 120.282 33.3049 120.282 33.9946V34.9341H115.706C115.727 35.48 115.89 35.9095 116.194 36.2227C116.503 36.5316 116.931 36.686 117.477 36.686C117.929 36.686 118.344 36.6395 118.721 36.5464C119.097 36.4533 119.485 36.3136 119.882 36.1274V37.6255C119.531 37.799 119.163 37.9259 118.778 38.0063C118.397 38.0868 117.934 38.127 117.388 38.127C116.677 38.127 116.046 37.9958 115.496 37.7334C114.95 37.471 114.521 37.0711 114.208 36.5337C113.899 35.9963 113.744 35.3192 113.744 34.5024C113.744 33.673 113.884 32.9832 114.163 32.4331C114.447 31.8787 114.84 31.464 115.344 31.189C115.847 30.9097 116.433 30.77 117.102 30.77ZM117.115 32.1475C116.738 32.1475 116.425 32.2681 116.175 32.5093C115.93 32.7505 115.788 33.1292 115.75 33.6455H118.467C118.463 33.3577 118.41 33.1017 118.308 32.8774C118.211 32.6532 118.063 32.4754 117.864 32.3442C117.669 32.2131 117.419 32.1475 117.115 32.1475ZM125.887 30.77C126.645 30.77 127.254 30.9774 127.715 31.3921C128.177 31.8026 128.407 32.4627 128.407 33.3726V38H126.471V33.855C126.471 33.3472 126.378 32.9642 126.192 32.7061C126.01 32.4479 125.722 32.3188 125.329 32.3188C124.736 32.3188 124.332 32.5199 124.116 32.9219C123.9 33.3239 123.792 33.9036 123.792 34.6611V38H121.856V30.9033H123.335L123.596 31.811H123.704C123.856 31.5656 124.044 31.3667 124.269 31.2144C124.497 31.062 124.749 30.9499 125.024 30.8779C125.303 30.806 125.591 30.77 125.887 30.77ZM132.647 38.127C131.856 38.127 131.211 37.818 130.711 37.2002C130.216 36.5781 129.969 35.6662 129.969 34.4644C129.969 33.2498 130.221 32.3315 130.724 31.7095C131.228 31.0832 131.886 30.77 132.698 30.77C133.037 30.77 133.335 30.8166 133.593 30.9097C133.851 31.0028 134.074 31.1276 134.26 31.2842C134.45 31.4408 134.611 31.6164 134.742 31.811H134.806C134.78 31.6756 134.749 31.4767 134.71 31.2144C134.677 30.9478 134.66 30.6748 134.66 30.3955V28.123H136.602V38H135.117L134.742 37.0796H134.66C134.537 37.2743 134.382 37.452 134.196 37.6128C134.014 37.7694 133.796 37.8942 133.542 37.9873C133.289 38.0804 132.99 38.127 132.647 38.127ZM133.327 36.5845C133.856 36.5845 134.228 36.4279 134.444 36.1147C134.664 35.7974 134.78 35.3213 134.793 34.6865V34.4771C134.793 33.7873 134.687 33.2604 134.476 32.8965C134.264 32.5283 133.87 32.3442 133.295 32.3442C132.868 32.3442 132.533 32.5283 132.292 32.8965C132.051 33.2646 131.93 33.7957 131.93 34.4897C131.93 35.1838 132.051 35.7064 132.292 36.0576C132.537 36.4089 132.882 36.5845 133.327 36.5845Z" fill="white"/>
<defs>
<filter id="filter0_d_4_858" x="0" y="0" width="254" height="85" filterUnits="userSpaceOnUse" color-interpolation-filters="sRGB">
<feFlood flood-opacity="0" result="BackgroundImageFix"/>
<feColorMatrix in="SourceAlpha" type="matrix" values="0 0 0 0 0 0 0 0 0 0 0 0 0 0 0 0 0 0 127 0" result="hardAlpha"/>
<feOffset dx="5" dy="10"/>
<feGaussianBlur stdDeviation="7"/>
<feComposite in2="hardAlpha" operator="out"/>
<feColorMatrix type="matrix" values="0 0 0 0 0.027451 0 0 0 0 0.67451 0 0 0 0 0.901961 0 0 0 0.29 0"/>
<feBlend mode="normal" in2="BackgroundImageFix" result="effect1_dropShadow_4_858"/>
<feBlend mode="normal" in="SourceGraphic" in2="effect1_dropShadow_4_858" result="shape"/>
</filter>
</defs>
</svg>
